<svg width="120" height="60" fill="none" xmlns="http://www.w3.org/2000/svg"><path d="M15.922 27.32c0 .188-.048.362-.143.523a4.735 4.735 0 01-.323.401c-.12.107-.252.228-.395.361a1.7 1.7 0 00-.288.442.761.761 0 00-.035.281c.023.107.011.2-.036.28-.12.376-.288.79-.503 1.245-.216.428-.407.87-.575 1.325-.071.214-.155.442-.25.683a3.78 3.78 0 01-.288.642 6.628 6.628 0 01-.359.682 1.71 1.71 0 00-.215.562.77.77 0 00.035.402.634.634 0 01.108.36 6.36 6.36 0 01-.215.844 5.936 5.936 0 00-.216.883 92.61 92.61 0 01-.143 1.004 4.73 4.73 0 01-.144.843c-.12.374-.251.816-.395 1.324-.143.482-.251.99-.323 1.526.838 0 1.64-.12 2.405-.362.79-.24 1.532-.495 2.226-.762.168.053.42.093.754.12.335.027.683.04 1.041.04h1.15a8.96 8.96 0 001.005-.12 6.632 6.632 0 001.04-.2c.408-.135.67-.282.79-.443.192-.294.324-.722.395-1.284.072-.562.168-1.097.288-1.606.12-.455.263-.896.43-1.324.168-.429.3-.843.395-1.245.048-.16.06-.321.036-.481 0-.188.024-.362.072-.522.12-.455.3-.897.539-1.325.239-.428.395-.79.466-1.084.072-.294.12-.602.144-.923.024-.321.048-.63.072-.924.048-.294.096-.561.143-.802.072-.268.192-.495.36-.683.095-.053.179-.107.25-.16l.288-.241c.311.107.586.16.826.16a5.5 5.5 0 00.682-.04c.239-.053.466-.12.682-.2.215-.08.466-.161.754-.241.215.214.383.455.502.722.12.241.347.375.683.402a.718.718 0 00.43-.16c.144-.108.311-.188.503-.242a36.48 36.48 0 011.22-.361c.503-.16.934-.24 1.293-.24a2.99 2.99 0 011.113.12c.335.08.706.053 1.113-.08.096.106.18.227.251.36.072.134.072.335 0 .603a5.16 5.16 0 01-.754.562c-.24.134-.49.28-.754.441-.239.134-.478.281-.718.442-.215.16-.419.361-.61.602a6.322 6.322 0 00-.862 1.525 16.81 16.81 0 01-.718 1.686 6.749 6.749 0 01-.323.562 1.75 1.75 0 00-.251.442c-.144.401-.24.843-.287 1.325-.048.455-.12.91-.216 1.364a20.21 20.21 0 01-.323 1.325c-.12.402-.203.83-.251 1.285.311.133.61.174.897.12.288-.08.623-.107 1.006-.08.191.027.383.067.574.12a4.1 4.1 0 00.646.12 5.8 5.8 0 00.97 0 3.6 3.6 0 01.933-.04c.12 0 .275.014.467.04.191 0 .37.027.538.08.192.054.347.135.467.242.144.08.215.2.215.361.024.214-.131.442-.466.682a6.78 6.78 0 01-.79.482 2.996 2.996 0 01-1.185.361 7.978 7.978 0 00-1.328.241 1.714 1.714 0 00-.898.442c-.24.214-.562.361-.97.441-.406.08-.753.134-1.04.161-.287 0-.67.027-1.149.08-.479.696-.802 1.512-.97 2.449-.143.91-.275 1.833-.394 2.77a36.284 36.284 0 01-.36 2.127 20.724 20.724 0 01-.502 1.967c-.072.348-.215.67-.43.964a6.686 6.686 0 00-.575 1.003c-.12.295-.227.59-.323.883-.072.295-.18.536-.323.723-.192.214-.455.375-.79.482-.335.107-.61.24-.826.401a5.425 5.425 0 00-.718.803c-.168.268-.419.508-.754.723a5.62 5.62 0 01-.61.04c-.144 0-.276-.014-.395-.04a1.06 1.06 0 01-.36-.161 2.024 2.024 0 01-.358-.281.955.955 0 01-.036-.442c.024-.107.012-.254-.036-.441-.144-.054-.263-.014-.359.12-.072.16-.203.241-.395.241-.191 0-.383-.134-.574-.401-.192-.241-.276-.482-.252-.723a2.7 2.7 0 01.18-.642 4.78 4.78 0 00.215-.843c.048-.241.084-.495.108-.763.048-.294.108-.562.18-.803.047-.133.107-.267.179-.401s.12-.281.144-.442c.071-.428.095-.83.071-1.204 0-.401.036-.79.108-1.164.048-.134.096-.254.144-.361a1.63 1.63 0 00.18-.362c.143-.455.287-.896.43-1.324.144-.428.275-.857.395-1.285.12-.455.251-.91.395-1.365a2.56 2.56 0 00.144-1.324c-.312-.027-.61 0-.898.08-.287.08-.575.174-.862.28-.287.108-.586.215-.897.322-.311.08-.634.12-.97.12a6.46 6.46 0 01-.61-.04c-.24-.027-.502-.053-.79-.08a4.627 4.627 0 00-.861 0 4.23 4.23 0 00-.646.04 3.27 3.27 0 00-.898.321 5.06 5.06 0 01-.934.402c-.335.08-.646.187-.933.32a3.045 3.045 0 01-.826.282c-.263.187-.454.468-.574.843a12 12 0 00-.323 1.124c-.072.401-.18.776-.323 1.124-.12.348-.335.589-.647.722.144.16.204.495.18 1.004-.024.482-.072.937-.144 1.365a13.23 13.23 0 01-.502 2.047 9.906 9.906 0 01-.682 1.726c-.383.188-.754.375-1.113.562-.335.214-.742.348-1.221.401-.12-.053-.203-.16-.251-.32a15.52 15.52 0 01-.072-.442 1.84 1.84 0 01-.503.763 3.416 3.416 0 01-.646.561l-.718.482c-.215.16-.395.375-.538.642H1.275a2.104 2.104 0 01-1.185-.28 2.343 2.343 0 010-1.285c.095-.401.167-.79.215-1.164a1.902 1.902 0 000-.522 1.625 1.625 0 010-.482c.048-.401.144-.883.287-1.445.12-.589.264-1.097.431-1.525.072-.214.168-.388.287-.522.12-.16.228-.348.324-.562.095-.268.155-.522.179-.763a2.19 2.19 0 01.18-.682c.047-.241.12-.455.215-.642.12-.215.203-.429.251-.643.048-.187.06-.374.036-.562 0-.187.024-.388.072-.602a.937.937 0 01.144-.361.936.936 0 00.143-.361 1.493 1.493 0 00-.18-.843 28.023 28.023 0 01-.394-.843 2.558 2.558 0 01-.216-.843c-.024-.295.096-.603.36-.924.239-.08.478-.147.717-.2a1.92 1.92 0 00.647-.322c.12-.535.215-1.057.287-1.565a17.09 17.09 0 01.287-1.526c.048-.267.12-.521.215-.762a3.02 3.02 0 00.252-.683c.048-.24.06-.481.036-.722-.024-.268 0-.509.071-.723a.987.987 0 01.288-.522c.143-.133.25-.307.323-.521-.192-.322-.276-.723-.252-1.205.048-.481.132-.99.252-1.525.143-.535.299-1.07.466-1.606.168-.562.288-1.097.36-1.605.12-.563.239-1.058.358-1.486.12-.428.407-.696.862-.803a7.408 7.408 0 002.55-.12 87.731 87.731 0 002.512-.682c.12-.027.18.026.18.16.024.107.083.174.18.2a1.39 1.39 0 01.645-.4c.264-.108.527-.148.79-.121.288 0 .563.053.826.16.263.08.479.201.646.362z" fill="url(#paint0_linear_219_19)"/><path d="M40.945 38.922a5.96 5.96 0 001.185-1.204c.335-.455.658-.91.97-1.365a.656.656 0 00.502-.12c.144-.108.3-.188.467-.241.335-.107.67-.094 1.005.04.36.107.706.147 1.041.12a3.43 3.43 0 001.149-.361c.383-.188.826-.281 1.328-.281.168 0 .324.067.467.2.144.108.287.175.43.201a.55.55 0 00.504-.08.983.983 0 01.538-.16c.335 0 .586.12.754.36.191.242.407.482.646.723.12.616.132 1.218.036 1.807a7.563 7.563 0 00-.072 1.806c.048.402.096.79.144 1.164.072.375.108.763.108 1.164.023.348 0 .723-.072 1.124-.048.375-.06.75-.036 1.124.024.134.06.268.108.402a.77.77 0 01.035.401c-.047.294-.155.522-.323.683a.974.974 0 00-.287.642c-.048.401.024.776.216 1.124a2.7 2.7 0 01.395 1.084c.023.16.011.334-.036.521a2.115 2.115 0 00-.072.522 13.444 13.444 0 000 1.967c.072.723.12 1.392.143 2.008 0 .214.012.428.036.642.048.214.048.388 0 .522a.524.524 0 01-.18.32 1.08 1.08 0 00-.179.282 2.167 2.167 0 000 .562 3.505 3.505 0 01.036 1.204 3.892 3.892 0 00-.036.482l.072.24c.048.108.06.201.036.282-.048.24-.215.495-.503.762-.263.295-.538.428-.825.402-.144-.027-.36-.16-.647-.402a5.285 5.285 0 01-.574-.522c-.215-.294-.347-.669-.395-1.124a4.076 4.076 0 00-.323-1.244 1.11 1.11 0 00-.323-.361 2.842 2.842 0 01-.323-.442 3.17 3.17 0 01-.288-.883 14.015 14.015 0 01-.107-.923c0-.321-.012-.63-.036-.923a4.54 4.54 0 00-.18-.964.777.777 0 00-.215-.28 1.078 1.078 0 01-.251-.322 3.173 3.173 0 01-.288-.682c-.047-.188-.203-.335-.466-.442-.838 0-1.688-.027-2.55-.08a12.725 12.725 0 00-2.476.08 1.43 1.43 0 00-.503.16 2.392 2.392 0 01-.503.12 1.06 1.06 0 01-.287-.04.95.95 0 00-.251-.04c-.335.054-.658.228-.97.523-.31.267-.55.535-.718.802-.095.16-.155.362-.179.602 0 .215-.036.429-.108.643a1.725 1.725 0 01-.359.602c-.167.16-.227.375-.18.642-.262.214-.49.482-.681.803a35.25 35.25 0 00-.503 1.004 7.198 7.198 0 01-.574.923 1.726 1.726 0 01-.718.642c-.12.054-.24.12-.36.2a.49.49 0 01-.322.121c-.12-.026-.192-.067-.216-.12 0-.054-.072-.134-.215-.241a20.251 20.251 0 00-.503-.361 5.302 5.302 0 01-1.113-.924 2.093 2.093 0 01-.359-.521c-.191-.455-.227-.777-.108-.964.12-.214.276-.468.467-.762.263-.429.563-.91.898-1.446a29.94 29.94 0 00.897-1.525c.144-.268.263-.522.36-.763.119-.24.262-.468.43-.682a2.44 2.44 0 01.718-.723c.311-.187.527-.428.646-.722.048-.134.072-.268.072-.402 0-.16.024-.32.072-.481.191-.536.49-1.017.897-1.446.407-.428.718-.91.934-1.445.048-.133.072-.254.072-.361.023-.134.06-.268.107-.401a12.1 12.1 0 011.4-2.65 17.876 17.876 0 001.472-2.328zm5.027-.12a3.93 3.93 0 00-.754.843 1.897 1.897 0 01-.79.682c-.096.24-.216.468-.36.682a1.41 1.41 0 01-.502.522 2.831 2.831 0 01-.43 1.124c-.216.295-.42.589-.61.883a1.81 1.81 0 00-.252.362 14.62 14.62 0 01-.252.36c-.12.135-.239.242-.359.322a.957.957 0 00-.323.24 6.22 6.22 0 00-.466.884 9.067 9.067 0 01-.467.923l-.36.402c-.119.133-.155.308-.107.522a.683.683 0 00.431.441c.215.054.455.094.718.12.287 0 .563-.013.826-.04.263-.026.478-.04.646-.04.335 0 .67.014 1.005.04.36 0 .694-.013 1.005-.04a2.62 2.62 0 00.862-.2c.263-.108.467-.268.61-.482.24-.856.3-1.713.18-2.57a112.19 112.19 0 01-.323-2.608 7.07 7.07 0 01-.108-.803 4.473 4.473 0 010-.803 2.14 2.14 0 01.215-.763c.144-.267.168-.575.072-.923l-.107-.08z" fill="url(#paint1_linear_219_19)"/><path d="M56.419 56.504c-.503.188-.946.12-1.328-.2-.383-.348-.623-.75-.718-1.205-.048-.214-.048-.535 0-.963.047-.455.12-.816.215-1.084.096-.294.3-.642.61-1.044a4.51 4.51 0 00.718-1.364c.168-.482.3-.937.395-1.365.12-.455.287-.817.503-1.084.167-.188.347-.348.538-.482.192-.16.3-.361.323-.602a.915.915 0 00-.18-.562c-.095-.16-.13-.375-.107-.642 0-.241.06-.549.18-.924a54.2 54.2 0 01.395-1.003c.263-.642.466-1.298.61-1.967.048-.187.084-.401.108-.642a4.03 4.03 0 01.143-.602c.072-.108.144-.282.216-.522a9.56 9.56 0 01.323-.723c.12-.24.251-.455.395-.642.143-.214.299-.361.466-.442.192-.08.395-.134.61-.16.24-.054.455-.134.647-.241.215-.08.347-.174.395-.281.048-.107.167-.214.359-.321.144-.054.287-.08.43-.08.168 0 .336-.027.503-.08.192-.081.395-.202.61-.362.216-.16.467-.147.755.04.12.08.239.321.358.723.12.401.24.776.36 1.123.047.188.107.415.18.683.095.268.179.549.25.843.072.268.144.522.216.763.072.214.131.374.18.481.119.268.203.549.25.843.049.295.12.562.216.803.12.268.24.522.359.763.12.24.24.508.359.803.12.294.227.575.323.843.096.267.216.548.36.843.095.214.239.414.43.602.191.16.311.348.359.562a1.23 1.23 0 010 .722 1.337 1.337 0 00-.036.683c.072.294.227.535.467.722.24.188.455.388.646.602.12.161.191.322.215.482.024.16.132.268.323.321.048-.508.096-.95.144-1.324.072-.375.144-.736.216-1.084l.215-1.124c.072-.402.132-.843.18-1.325.239-.348.454-.669.646-.963.191-.321.275-.736.251-1.245a1.843 1.843 0 00-.144-.481 1.254 1.254 0 01-.035-.522c.023-.268.071-.509.143-.723.072-.214.168-.482.287-.803.072-.214.132-.428.18-.642.048-.24.108-.495.18-.763.071-.214.131-.388.179-.521.072-.134.143-.255.215-.362.072-.134.132-.267.18-.401.048-.16.096-.388.143-.683.072-.454.108-.843.108-1.164 0-.32.06-.642.18-.963a2.84 2.84 0 01.897-1.204c.43-.348.838-.63 1.22-.843.67.026 1.221.227 1.652.602.431.348.706.776.826 1.284.168.482.156.883-.036 1.205-.191.294-.383.629-.574 1.003a5.41 5.41 0 00-.288.682l-.143.643c-.024.187-.06.388-.108.602a3.255 3.255 0 01-.18.723 1.93 1.93 0 01-.323.682 1.24 1.24 0 00-.287.522c.072.374.096.682.072.923 0 .24-.036.468-.108.682a8.623 8.623 0 01-.18.603 13.35 13.35 0 00-.143.642 2.265 2.265 0 00-.072.562c0 .187-.023.361-.071.522a4.634 4.634 0 01-.288.883c-.12.267-.239.522-.359.763a7.937 7.937 0 01-.574 1.123c-.192.348-.311.817-.359 1.405-.024.375-.048.71-.072 1.004 0 .268-.012.522-.036.763 0 .24-.036.495-.107.763-.048.267-.12.588-.216.963-.048.214-.12.428-.215.642a4.31 4.31 0 00-.18.602c-.143.696-.347 1.231-.61 1.606-.263.348-.658.71-1.185 1.084l-.861.24a3.169 3.169 0 01-.862.121c-.263 0-.515-.053-.754-.16-.24-.08-.443-.268-.61-.562a6.395 6.395 0 01-.395-.924 10.86 10.86 0 00-.431-1.244 3.369 3.369 0 00-.251-.522 5.093 5.093 0 01-.18-.562 4.965 4.965 0 01-.251-.763 4.908 4.908 0 00-.216-.883c-.167-.589-.43-1.03-.79-1.325a5.675 5.675 0 01-.933-.963 5.653 5.653 0 00-.108-.722.899.899 0 00-.323-.522.23.23 0 00-.18-.08.356.356 0 01-.179-.161.937.937 0 01-.143-.361.685.685 0 00-.144-.362 2.025 2.025 0 01-.215-.361l-.288-.562a2.145 2.145 0 00-.25-.482c-.096-.16-.168-.227-.216-.2-.12 0-.24.107-.36.32l-.322.723-.288.803c-.095.241-.18.415-.25.522-.12.187-.216.468-.288.843a3.15 3.15 0 01-.215.843c-.168.321-.324.642-.467.963-.12.322-.084.67.108 1.044a.806.806 0 01-.144.482c-.072.107-.084.294-.036.562-.144.294-.287.629-.43 1.003l-.396 1.245a8.525 8.525 0 00-.18.843 9.687 9.687 0 01-.179.803 1.99 1.99 0 01-.323.642.67.67 0 01-.502.321c-.288.053-.527.013-.718-.12a3.12 3.12 0 01-.539-.482 9.374 9.374 0 01-.503-.522 1.83 1.83 0 00-.538-.482z" fill="url(#paint2_linear_219_19)"/><path d="M79.647 56.504c-.503.188-.945.12-1.328-.2-.383-.348-.623-.75-.718-1.205-.048-.214-.048-.535 0-.963.047-.455.12-.816.215-1.084.096-.294.3-.642.61-1.044.311-.401.55-.856.718-1.364.168-.482.3-.937.395-1.365.12-.455.287-.817.503-1.084.167-.188.347-.348.538-.482.192-.16.3-.361.323-.602a.915.915 0 00-.179-.562c-.096-.16-.132-.375-.108-.642 0-.241.06-.549.18-.924.143-.374.275-.709.395-1.003.263-.642.466-1.298.61-1.967a4.35 4.35 0 00.108-.642c.048-.268.095-.469.143-.602.072-.108.144-.282.216-.522.096-.241.203-.482.323-.723.12-.24.251-.455.395-.642.143-.214.299-.361.466-.442.192-.08.395-.134.61-.16a2.38 2.38 0 00.647-.241c.215-.08.347-.174.395-.281.048-.107.168-.214.359-.321.144-.054.287-.08.43-.08.168 0 .336-.027.503-.08.192-.081.395-.202.61-.362.216-.16.467-.147.755.04.12.08.239.321.359.723.12.401.239.776.359 1.123.048.188.107.415.18.683.095.268.179.549.25.843.072.268.144.522.216.763.072.214.132.374.18.481.12.268.203.549.25.843.049.295.12.562.216.803.12.268.24.522.36.763.119.24.239.508.358.803.12.294.227.575.323.843.096.267.216.548.36.843.095.214.239.414.43.602.192.16.311.348.36.562.07.214.07.455 0 .722a1.327 1.327 0 00-.037.683c.072.294.228.535.467.722.24.188.455.388.646.602.12.161.192.322.216.482.023.16.131.268.323.321.047-.508.095-.95.143-1.324.072-.375.144-.736.216-1.084l.215-1.124c.072-.402.132-.843.18-1.325.239-.348.454-.669.646-.963.191-.321.275-.736.251-1.245a1.843 1.843 0 00-.143-.481 1.256 1.256 0 01-.036-.522 3.16 3.16 0 01.143-.723c.072-.214.168-.482.287-.803.072-.214.132-.428.18-.642.048-.24.108-.495.18-.763.071-.214.131-.388.179-.521.072-.134.144-.255.215-.362.072-.134.132-.267.18-.401a5.72 5.72 0 00.144-.683c.071-.454.107-.843.107-1.164 0-.32.06-.642.18-.963a2.84 2.84 0 01.897-1.204 8.83 8.83 0 011.22-.843c.671.026 1.222.227 1.652.602.431.348.706.776.826 1.284.168.482.156.883-.036 1.205-.191.294-.383.629-.574 1.003-.12.241-.216.468-.287.682l-.144.643a6.59 6.59 0 01-.108.602 3.29 3.29 0 01-.179.723c-.072.267-.18.495-.323.682-.144.16-.24.334-.288.522.072.374.096.682.072.923 0 .24-.036.468-.108.682a8.62 8.62 0 01-.179.603c-.048.187-.096.401-.144.642a2.26 2.26 0 00-.071.562c0 .187-.024.361-.072.522a4.634 4.634 0 01-.288.883c-.12.267-.239.522-.358.763a7.937 7.937 0 01-.575 1.123c-.191.348-.311.817-.359 1.405-.024.375-.048.71-.072 1.004 0 .268-.012.522-.036.763 0 .24-.035.495-.107.763-.048.267-.12.588-.216.963-.048.214-.12.428-.215.642a4.296 4.296 0 00-.18.602c-.143.696-.347 1.231-.61 1.606-.263.348-.658.71-1.185 1.084l-.861.24a3.169 3.169 0 01-.862.121 1.83 1.83 0 01-.754-.16c-.24-.08-.443-.268-.61-.562a6.395 6.395 0 01-.395-.924c-.12-.428-.263-.843-.43-1.244a3.378 3.378 0 00-.252-.522 5.072 5.072 0 01-.18-.562 4.955 4.955 0 01-.251-.763 4.908 4.908 0 00-.215-.883c-.168-.589-.431-1.03-.79-1.325a5.68 5.68 0 01-.934-.963 5.653 5.653 0 00-.107-.722.9.9 0 00-.324-.522.231.231 0 00-.179-.08.356.356 0 01-.18-.161.937.937 0 01-.143-.361.685.685 0 00-.144-.362 2.037 2.037 0 01-.215-.361l-.287-.562a2.145 2.145 0 00-.252-.482c-.095-.16-.167-.227-.215-.2-.12 0-.24.107-.36.32l-.322.723-.287.803a2.99 2.99 0 01-.252.522c-.12.187-.215.468-.287.843a3.19 3.19 0 01-.215.843c-.168.321-.323.642-.467.963-.12.322-.084.67.108 1.044a.806.806 0 01-.144.482c-.072.107-.084.294-.036.562-.144.294-.287.629-.43 1.003l-.396 1.245a8.554 8.554 0 00-.18.843 9.687 9.687 0 01-.179.803 1.97 1.97 0 01-.323.642.67.67 0 01-.502.321c-.288.053-.527.013-.718-.12a3.123 3.123 0 01-.539-.482 9.41 9.41 0 01-.502-.522 1.83 1.83 0 00-.539-.482z" fill="url(#paint3_linear_219_19)"/><path d="M108.655 38.922a5.98 5.98 0 001.185-1.204c.335-.455.658-.91.969-1.365a.657.657 0 00.503-.12 1.57 1.57 0 01.467-.241c.335-.107.67-.094 1.005.04a2.83 2.83 0 001.041.12c.407-.053.79-.174 1.149-.361.383-.188.826-.281 1.328-.281.168 0 .323.067.467.2.143.108.287.175.431.201a.55.55 0 00.502-.08.984.984 0 01.539-.16c.335 0 .586.12.754.36.191.242.407.482.646.723a5.09 5.09 0 01.036 1.807 7.542 7.542 0 00-.072 1.806c.048.402.096.79.144 1.164.071.375.107.763.107 1.164.024.348 0 .723-.071 1.124-.048.375-.06.75-.036 1.124a2.6 2.6 0 00.107.402c.048.133.06.267.036.401-.048.294-.155.522-.323.683a.978.978 0 00-.287.642 1.83 1.83 0 00.215 1.124c.216.348.347.709.395 1.084.024.16.012.334-.036.521a2.155 2.155 0 00-.071.522 13.416 13.416 0 000 1.967c.071.723.119 1.392.143 2.008 0 .214.012.428.036.642.048.214.048.388 0 .522a.528.528 0 01-.179.32 1.096 1.096 0 00-.18.282 2.158 2.158 0 000 .562 3.498 3.498 0 01.036 1.204 3.875 3.875 0 00-.036.482l.072.24c.048.108.06.201.036.282-.048.24-.216.495-.503.762-.263.295-.538.428-.826.402-.143-.027-.359-.16-.646-.402a5.235 5.235 0 01-.574-.522c-.216-.294-.347-.669-.395-1.124a4.093 4.093 0 00-.323-1.244 1.118 1.118 0 00-.323-.361 2.778 2.778 0 01-.323-.442 3.165 3.165 0 01-.288-.883 13.863 13.863 0 01-.107-.923c0-.321-.012-.63-.036-.923a4.536 4.536 0 00-.18-.964.776.776 0 00-.215-.28 1.06 1.06 0 01-.251-.322 3.166 3.166 0 01-.288-.682c-.048-.188-.203-.335-.466-.442-.838 0-1.688-.027-2.549-.08a12.733 12.733 0 00-2.478.08c-.191.027-.359.08-.502.16a2.393 2.393 0 01-.503.12 1.06 1.06 0 01-.287-.04.954.954 0 00-.251-.04c-.335.054-.659.228-.97.523a3.63 3.63 0 00-.718.802c-.095.16-.155.362-.179.602 0 .215-.036.429-.108.643a1.72 1.72 0 01-.359.602c-.167.16-.227.375-.179.642a3.004 3.004 0 00-.683.803c-.167.321-.335.656-.502 1.004a7.191 7.191 0 01-.575.923c-.191.294-.43.508-.718.642-.119.054-.239.12-.359.2a.487.487 0 01-.323.121c-.119-.026-.191-.067-.215-.12 0-.054-.072-.134-.216-.241a19.936 19.936 0 00-.502-.361 5.205 5.205 0 01-1.113-.924 2.093 2.093 0 01-.36-.521c-.19-.455-.226-.777-.107-.964.12-.214.275-.468.467-.762.263-.429.562-.91.897-1.446.335-.535.635-1.043.898-1.525.144-.268.263-.522.359-.763.12-.24.263-.468.431-.682.191-.295.431-.535.718-.723.311-.187.526-.428.646-.722.048-.134.072-.268.072-.402 0-.16.024-.32.072-.481.191-.536.49-1.017.897-1.446.407-.428.718-.91.934-1.445a1.1 1.1 0 00.071-.361 2.49 2.49 0 01.108-.401c.383-.99.85-1.874 1.4-2.65a17.833 17.833 0 001.472-2.328zm5.026-.12c-.287.24-.538.521-.754.843a1.892 1.892 0 01-.789.682c-.096.24-.216.468-.359.682-.12.215-.288.388-.503.522a2.825 2.825 0 01-.431 1.124 20.02 20.02 0 00-.61.883 1.81 1.81 0 00-.251.362 13.5 13.5 0 01-.252.36 1.91 1.91 0 01-.359.322.964.964 0 00-.323.24 6.206 6.206 0 00-.467.884 9.1 9.1 0 01-.466.923l-.359.402c-.12.133-.156.308-.108.522a.683.683 0 00.431.441c.215.054.455.094.718.12.287 0 .562-.013.826-.04.263-.026.478-.04.646-.04.335 0 .67.014 1.005.04.359 0 .694-.013 1.005-.04a2.62 2.62 0 00.862-.2 1.3 1.3 0 00.61-.482 6.24 6.24 0 00.18-2.57c-.12-.882-.228-1.752-.323-2.608a7.067 7.067 0 01-.108-.803 4.473 4.473 0 010-.803 2.14 2.14 0 01.215-.763c.144-.267.168-.575.072-.923l-.108-.08z" fill="url(#paint4_linear_219_19)"/><path d="M32.12 29.505c-.478 0-.837.12-1.076.36a1.86 1.86 0 00-.467.844c-.287-.08-.622-.094-1.005-.04-.36.053-.73.107-1.113.16a7.24 7.24 0 01-1.077.08c-.335.027-.622-.04-.862-.2a.88.88 0 01-.287-.321 2.538 2.538 0 00-.251-.442 6.347 6.347 0 00-.287-.441.833.833 0 01-.216-.402c-.048-.16-.012-.388.108-.682.12-.321.227-.549.323-.683a1.37 1.37 0 01.323-.2c.144-.054.275-.134.395-.241.335-.295.574-.656.718-1.084.168-.455.311-.816.43-1.084a5.99 5.99 0 01.575-.401c.24-.16.335-.362.287-.603a1.183 1.183 0 00-.754-.16c-.287 0-.574-.013-.861-.04-.479 0-.957-.04-1.436-.12a48.18 48.18 0 00-1.293-.201c-.622-.134-1.16-.455-1.615-.964-.479-.508-.682-1.15-.61-1.927.167-.08.358-.12.574-.12.191 0 .407.013.646.04.216.027.443.054.682.08.216 0 .42-.04.61-.12.216.16.42.24.61.24.169 0 .336-.04.504-.12l.43-.24c.144-.107.276-.174.395-.201a.657.657 0 01.323 0c.096.027.204.04.323.04.192 0 .383-.027.575-.08a3.66 3.66 0 01.682-.201c.359-.053.73-.08 1.113-.08.383-.027.706-.107.97-.241a2.69 2.69 0 00.574-.402c.215-.214.37-.401.466-.562a.647.647 0 00.036-.36c0-.135.024-.268.072-.402.12-.455.323-.857.61-1.205.312-.347.563-.735.754-1.164a5.32 5.32 0 00.144-.481c.048-.107.084-.201.108-.281.024-.08.048-.174.072-.281.047-.107.131-.268.25-.482.216-.375.432-.736.647-1.084.24-.348.515-.682.826-1.004 0-.16.024-.294.072-.4l.143-.402c.646-.295 1.173-.683 1.58-1.164.407-.482.814-.99 1.22-1.526-.023-.267.024-.455.144-.562.12-.134.18-.334.18-.602a.878.878 0 00-.144-.442 1.56 1.56 0 01-.108-.562c0-.214.072-.428.216-.642.167-.24.31-.455.43-.642.192-.214.336-.428.431-.642.12-.214.24-.415.36-.602.19-.241.382-.455.574-.643.215-.187.419-.415.61-.682.096-.16.168-.335.215-.522a.96.96 0 01.324-.482c.215-.16.514-.254.897-.28l1.149-.081c.455-.027.945-.08 1.472-.16.55-.108 1.089-.215 1.616-.322.55-.107 1.077-.2 1.58-.28A10.56 10.56 0 0149.46.16a6.268 6.268 0 011.22-.04c.408.026.73-.014.97-.121l1.005.963c.36.295.694.616 1.006.964.095.535.18 1.03.25 1.485.073.455.085.91.037 1.365a1.865 1.865 0 01-.252.602 1.137 1.137 0 00-.107.642c0 .402.107.803.323 1.205.215.374.37.79.467 1.244a1.22 1.22 0 01-.108.642c-.072.188-.12.388-.144.602-.024.215-.012.455.036.723.048.24.096.495.144.763 0 .32-.012.642-.036.963-.024.321-.012.656.036 1.004s.108.709.18 1.084c.071.347.095.709.071 1.083-.048.375-.12.723-.215 1.044a4.586 4.586 0 00-.108 1.004c-.024.481 0 .95.072 1.405.072.428.048.87-.072 1.324.192.268.287.535.287.803a3.02 3.02 0 01-.036.803c-.047.268-.095.549-.143.843-.048.268-.024.549.072.843.047.187.143.361.287.522.143.134.24.308.287.522.072.267.108.602.108 1.003.024.375.036.736.036 1.084.023.856-.048 1.62-.216 2.288a12.108 12.108 0 00-.251 2.168c0 .348-.012.736-.036 1.164 0 .428-.06.763-.18 1.003-.12.161-.31.322-.574.482-.263.188-.49.295-.682.321-.36.027-.778-.08-1.257-.32-.454-.242-.801-.496-1.04-.764a7.676 7.676 0 01-.611-.883 50.984 50.984 0 00-.539-1.003 8.65 8.65 0 00-.538-.964 3.408 3.408 0 00-.646-.802 5.73 5.73 0 00-.395-.241.917.917 0 01-.323-.281 2.19 2.19 0 01-.252-.883c0-.348.012-.696.036-1.044.048-.375.084-.736.108-1.084a2.333 2.333 0 00-.036-.923c-.072-.268-.167-.469-.287-.602a.854.854 0 00-.467-.322 1.403 1.403 0 00-.61-.12 21.514 21.514 0 00-.79-.08c-1.125-.08-2.286-.16-3.483-.241a41.376 41.376 0 00-3.661-.08c-.264 0-.455.013-.575.04a6.38 6.38 0 00-.323.08c-.096 0-.191.013-.287.04-.096.027-.252.04-.467.04-.479.027-.91.067-1.292.12a1.71 1.71 0 00-1.005.402c-.168.134-.348.402-.54.803-.19.402-.334.71-.43.923-.12.322-.227.656-.323 1.004a17.19 17.19 0 01-.251 1.044 5.817 5.817 0 01-.288.923c-.12.294-.287.549-.502.763zm9.12-10.598c.814-.027 1.591-.04 2.333-.04a48.285 48.285 0 002.154-.12 1.87 1.87 0 01.252-.121c.096-.027.24-.013.43.04 0-.134.06-.2.18-.2a.753.753 0 00.287-.121c.096-.187.144-.334.144-.441a.624.624 0 00-.072-.322.95.95 0 00-.144-.32 1.578 1.578 0 01-.071-.523c0-.214.024-.428.072-.642.071-.24.12-.482.143-.723.024-.187 0-.388-.072-.602a1.938 1.938 0 01-.036-.642.87.87 0 01.216-.482c.12-.16.18-.334.18-.521 0-.107-.025-.228-.072-.362l-.072-.401a4.435 4.435 0 01-.036-.562 1.038 1.038 0 00-.036-.482 1.217 1.217 0 00-.36-.602 1.217 1.217 0 01-.358-.602 2.158 2.158 0 01-.036-.883c.072-.348.108-.683.108-1.004a16.78 16.78 0 00-.108-1.244 3.418 3.418 0 00-.359-1.124c-.263-.16-.467-.214-.61-.16-.12.026-.228.12-.323.28a4.232 4.232 0 00-.216.482.977.977 0 01-.287.482c-.646.642-1.149 1.298-1.508 1.967a29.554 29.554 0 01-1.328 2.127c-.216.295-.443.589-.682.883a8.86 8.86 0 00-.61.964c-.168.348-.3.709-.396 1.084-.095.374-.12.789-.072 1.244a2.77 2.77 0 01-.323.482c-.071.08-.155.16-.25.24-.097.08-.204.174-.324.282a7.881 7.881 0 00-.359.441c-.263.375-.55.763-.862 1.164a2.86 2.86 0 00-.61 1.245c.43.133.802.2 1.113.2a9.7 9.7 0 00.898-.04l.933-.16c.335-.08.718-.134 1.149-.161z" fill="url(#paint5_linear_219_19)"/><path d="M65.976 30.147c-.168-.027-.42.04-.754.2a10.35 10.35 0 01-.862.402c-.263.08-.55.174-.861.281-.312.107-.61.147-.898.12a1.333 1.333 0 01-.538-.2.753.753 0 00-.467-.08.426.426 0 00-.323.16.889.889 0 01-.36.24 4.084 4.084 0 01-.933.242c-.359.08-.706.107-1.04.08-.336-.027-.611-.134-.827-.321-.191-.16-.25-.428-.18-.803.049-.24.133-.482.252-.723.144-.267.275-.562.395-.883.192-.562.335-1.15.43-1.766.097-.642.228-1.15.396-1.525.096-.215.24-.415.43-.603.192-.187.3-.387.324-.602a.552.552 0 00-.072-.401c-.072-.107-.108-.254-.108-.442 0-.133.024-.267.072-.401.072-.16.12-.348.144-.562a2.2 2.2 0 000-.562 1.036 1.036 0 01.036-.482c.047-.16.12-.307.215-.441a6.29 6.29 0 01.287-.442c.12-.16.216-.334.287-.522.072-.187.108-.401.108-.642 0-.134.036-.348.108-.642.072-.321.096-.562.072-.723-.072-.562-.072-1.03 0-1.405.095-.375.203-.709.323-1.003l.43-.964a3.77 3.77 0 00.36-1.164c.095-.562.167-1.15.215-1.766a10.12 10.12 0 01.251-1.646c.144-.508.347-.91.61-1.204.288-.295.719-.402 1.293-.321.24.32.395.628.467.923.096.294.227.629.395 1.003.072.214.263.402.574.562.311.161.527.335.646.522.12.16.252.335.395.522a1.1 1.1 0 01.323.522c.072.348.084.75.036 1.204-.024.455-.048.87-.072 1.245a56.01 56.01 0 00-.071.682c-.024.214-.06.402-.108.562a2.144 2.144 0 01-.18.482 2.488 2.488 0 00-.107.401c-.048.268-.084.509-.108.723 0 .187-.024.374-.072.562-.12.401-.299.75-.538 1.043a3.39 3.39 0 00-.503 1.044 3.952 3.952 0 00-.18.642c-.023.241-.06.469-.107.683-.144.589-.3 1.258-.467 2.007a7.54 7.54 0 00-.18 2.168 5.98 5.98 0 01.503-.12c.144-.028.276-.04.395-.04a.978.978 0 01.395 0c.168.026.371.066.61.12.36.107.754.24 1.185.4a5.61 5.61 0 001.328.322c.336.027.67.027 1.006 0a4.479 4.479 0 011.04.04c.336.054.647.12.934.2.311.054.599.054.862 0 .12-.053.203-.093.251-.12a.756.756 0 01.252-.12c.383-.08.825-.067 1.328.04.502.08.97.147 1.4.2h.323a1.2 1.2 0 01.431 0 .54.54 0 01.359.121c.096.08.144.201.144.362-.024.24-.192.428-.503.562a4.909 4.909 0 01-.718.28 3.08 3.08 0 01-.826.121 2.957 2.957 0 00-1.508.442 2.463 2.463 0 01-.61.24.359.359 0 01-.215.08.402.402 0 00-.252 0 2.349 2.349 0 00-.502.282 1.86 1.86 0 01-.467.2c-.43.107-.897.08-1.4-.08a3.436 3.436 0 00-1.472-.16c-.192.026-.383.08-.575.16l-.574.16a4.378 4.378 0 01-.574.121 2.39 2.39 0 00-.503.12l-1.005.08z" fill="url(#paint6_linear_219_19)"/><path d="M94.374 11.762c-.646.348-1.293.521-1.939.521-.646 0-1.364-.026-2.154-.08a7.37 7.37 0 00-.718.04c-.24.027-.467.054-.682.08a4.46 4.46 0 00-2.836 1.446c-.766.803-1.329 1.82-1.688 3.05-.12.456-.215.87-.287 1.245-.072.375.084.589.467.642.24.054.478.054.718 0 .24-.053.478-.12.718-.2.263-.108.514-.201.754-.281.239-.08.478-.12.718-.12.096 0 .18.026.251.08.096.053.192.08.287.08.407.053.838.026 1.293-.08.454-.134.873-.148 1.256-.04.072.026.132.08.18.16.072.053.167.107.287.16.311.134.682.228 1.113.281.43.027.778.108 1.041.241.12.054.24.16.359.321.12.134.18.228.18.281 0 .295-.156.482-.467.562-.311.08-.575.134-.79.161a2.062 2.062 0 01-.574 0 1.394 1.394 0 00-.575.04 5.776 5.776 0 00-.97.241c-.31.08-.645.187-1.004.321a6.02 6.02 0 00-1.15.602 3.01 3.01 0 01-1.184.402 2.55 2.55 0 01-.897 0 2.73 2.73 0 00-.934 0c-.12.026-.24.067-.359.12a1.189 1.189 0 01-.323.12 23 23 0 01-.503.121.409.409 0 00-.251.08 2.301 2.301 0 00-.18.241 6.731 6.731 0 01-.25.482 5.47 5.47 0 00-.36 1.565c-.048.536-.096 1.111-.143 1.727.263.294.514.535.753.722.24.16.61.24 1.113.24.264 0 .467-.026.61-.08.168-.08.384-.133.647-.16.263 0 .526.027.79.08.263.027.562.027.897 0 .694-.053 1.28-.147 1.76-.28.478-.161 1.065-.215 1.759-.161.143 0 .395.013.754.04.382.027.765.067 1.148.12.383.027.719.08 1.006.16.31.081.466.188.466.322 0 .16-.095.335-.287.522-.167.16-.37.321-.61.482a5.708 5.708 0 01-.682.36l-.431.161a2.601 2.601 0 01-1.185.12 3.893 3.893 0 00-1.256-.04 4.1 4.1 0 00-.898.242c-.263.107-.526.227-.79.36-.263.108-.538.228-.826.362a3.087 3.087 0 01-.933.2 10.1 10.1 0 00-1.22.202c-.336.053-.73.133-1.185.24-.192.054-.371.107-.539.161-.167.08-.347.147-.538.2-.694.161-1.448.188-2.262.081-.79-.08-1.652-.067-2.585.04-.598.08-1.137.174-1.616.281a3.524 3.524 0 01-1.4.12 18.88 18.88 0 01-.466-.08.558.558 0 01-.431-.2c.048-.214.155-.402.323-.562a7.36 7.36 0 01.502-.442 8.05 8.05 0 00.467-.482l.467-.522a3.06 3.06 0 00.359-.762c.096-.321.18-.642.251-.964.096-.32.192-.615.288-.883.12-.294.263-.548.43-.763-.191-.481-.191-1.03 0-1.645.216-.616.407-1.258.575-1.927.048-.16.072-.321.072-.482 0-.16.023-.308.071-.441a1.36 1.36 0 01.323-.683c.168-.214.276-.428.324-.642a1.128 1.128 0 000-.402c0-.133.011-.267.035-.401.048-.401.132-.776.252-1.124.143-.375.24-.71.287-1.003a1.453 1.453 0 000-.643 3.254 3.254 0 010-.682 7.735 7.735 0 01.287-1.526c.168-.481.263-.91.287-1.284a2.788 2.788 0 00-.107-.964 4.41 4.41 0 00-.288-.802 1.585 1.585 0 00-.323-.402 6.802 6.802 0 00-.43-.441 26.228 26.228 0 00-.395-.362c-.096-.134-.144-.254-.144-.361.024-.294.132-.442.323-.442a.97.97 0 00.539-.28c.861.026 1.675.133 2.44.32.79.188 1.605.308 2.442.362.311.053.634.053.97 0 .335-.08.658-.134.969-.16.502-.027 1.065.053 1.687.24.647.187 1.28.254 1.903.2a37.64 37.64 0 012.37-.08c.741 0 1.52-.026 2.333-.08.144.134.36.201.646.201l.862-.08a2.97 2.97 0 01.826-.04c.263.026.442.147.538.36.144.376.12.697-.072.964a1.313 1.313 0 01-.79.522 2.66 2.66 0 00-.394.04 21.91 21.91 0 01-.539.08c-.191.027-.383.04-.574.04h-.36z" fill="url(#paint7_linear_219_19)"/><path d="M111.965 18.626a2.9 2.9 0 01-.502 1.004 6.973 6.973 0 01-.718.762 6.61 6.61 0 01-.79.602 9.758 9.758 0 00-.826.602c.335.616.598 1.098.79 1.446.215.348.407.669.574.963.192.268.395.562.611.883.239.321.562.776.969 1.365-.024.08-.048.174-.072.281 0 .08-.012.16-.036.24.479.135.886.416 1.221.844.359.401.742.79 1.149 1.164.096.08.203.16.323.24.143.081.275.175.395.282.119.107.215.214.287.321a.527.527 0 01.144.361 1.441 1.441 0 01-.216.643 1.054 1.054 0 01-.431.401.658.658 0 01-.502.04c-.168-.053-.323-.227-.467-.522a3.92 3.92 0 01-.395.643 2.275 2.275 0 01-.467.521 9.711 9.711 0 01-.466-.12 1.215 1.215 0 01-.395-.12.859.859 0 00-.467.2 4.086 4.086 0 01-.323.321 1.282 1.282 0 01-.323.322c-.12.08-.275.107-.467.08-.167-.027-.311-.147-.431-.362a2.901 2.901 0 00-.323-.561 5.715 5.715 0 00-.826-.964 5.552 5.552 0 01-.825-1.084 16.6 16.6 0 01-.323-.602c-.072-.187-.216-.348-.431-.482-.431-.214-.682-.388-.754-.521l-.215-.402a3.918 3.918 0 00-.18-.482c-.048-.16-.156-.347-.323-.561a3.678 3.678 0 00-.251-.362l-.036-.08a.334.334 0 00-.036-.12c0-.054-.048-.188-.144-.402-.096.134-.191.174-.287.12a73.831 73.831 0 01-.287-.16 6.41 6.41 0 00-.97.963c-.335.375-.694.75-1.077 1.124-.359.348-.742.683-1.148 1.004-.383.294-.79.482-1.221.562-.168.401-.347.696-.539.883-.167.16-.442.388-.825.682-.264.214-.515.415-.754.603-.24.214-.527.348-.862.401-.407.027-.85-.04-1.328-.2-.479-.161-.814-.389-1.005-.683-.048-.321-.013-.589.107-.803.12-.24.275-.455.467-.642.191-.188.395-.362.61-.522.216-.16.395-.321.539-.482.263-.294.514-.589.754-.883.239-.321.49-.589.754-.803.215-.187.454-.388.718-.602.287-.24.562-.495.825-.763.288-.267.551-.535.79-.802.24-.268.431-.522.575-.763.119-.054.215-.107.287-.16l.287-.161c.12-.375.287-.683.503-.924.239-.24.466-.481.682-.722-.12-.455-.252-.803-.395-1.044a8.344 8.344 0 01-.359-1.003c-.048-.054-.12-.067-.216-.04-.095.026-.167.013-.215-.04a4.022 4.022 0 01-.395-.964 4.698 4.698 0 00-.395-1.004 1.852 1.852 0 00-.251-.361 1.644 1.644 0 01-.216-.401 1.505 1.505 0 01-.035-.562.793.793 0 00-.108-.522c-.048-.134-.132-.2-.251-.2a1.73 1.73 0 01-.36-.162 1.523 1.523 0 01-.358-.562 3.36 3.36 0 00-.288-.682 4.089 4.089 0 00-.323-.321l-.359-.401a2.537 2.537 0 01-.251-.442 2.05 2.05 0 01-.036-.682c.024-.134.06-.255.108-.362a1.55 1.55 0 00.107-.361c.048-.24.204-.522.467-.843.287-.321.598-.629.934-.923a6.264 6.264 0 011.077-.723c.383-.214.706-.321.969-.321.12 0 .299.12.538.361.24.214.395.388.467.522.072.107.132.241.18.402.048.16.119.32.215.481.192.455.347.897.467 1.325.143.428.311.883.502 1.365.336.803.659 1.525.97 2.167.335.643.706 1.339 1.113 2.088.072.16.215.388.431.682.215.295.382.442.502.442.144 0 .371-.12.682-.361.335-.268.563-.469.682-.603a3.35 3.35 0 00.647-.682 6.54 6.54 0 00.43-.803c.144-.267.288-.522.431-.763.144-.267.347-.495.611-.682.263.054.454.04.574-.04.144-.107.287-.2.431-.281.048-.508.215-.856.502-1.044.312-.214.623-.455.934-.722.143-.107.239-.188.287-.241.072-.054.12-.094.144-.12a.57.57 0 01.143-.121l.323-.24a1.75 1.75 0 00.323-.242.436.436 0 00.144-.16c.048-.054.108-.107.18-.16.071-.081.191-.188.359-.322.287-.24.55-.442.789-.602.24-.188.479-.388.718-.602.24-.214.419-.388.539-.522.144-.134.263-.268.359-.402l.359-.401c.144-.16.335-.348.574-.562.264.027.467.107.611.24.167.108.323.228.466.362.12.402.132.83.036 1.285-.095.455-.179.87-.251 1.244a2.112 2.112 0 00-.072.522v.482c0 .134-.024.267-.072.401a1.709 1.709 0 01-.251.442.85.85 0 01-.215.16 2.29 2.29 0 01-.252.16c-.287.295-.502.523-.646.683-.143.134-.275.255-.395.362a1.868 1.868 0 01-.395.32c-.143.108-.383.268-.718.482a2.983 2.983 0 01-.43.522c-.12.134-.252.254-.395.362-.12.107-.252.227-.395.36a3.273 3.273 0 00-.467.442l-1.149 1.205c-.383.374-.885.602-1.508.682z" fill="url(#paint8_linear_219_19)"/><defs><linearGradient id="paint0_linear_219_19" x1="60" y1="0" x2="60" y2="60" gradientUnits="userSpaceOnUse"><stop stop-color="#02ECFC" stop-opacity=".76"/><stop offset="1" stop-color="#FF01E6" stop-opacity=".85"/></linearGradient><linearGradient id="paint1_linear_219_19" x1="60" y1="0" x2="60" y2="60" gradientUnits="userSpaceOnUse"><stop stop-color="#02ECFC" stop-opacity=".76"/><stop offset="1" stop-color="#FF01E6" stop-opacity=".85"/></linearGradient><linearGradient id="paint2_linear_219_19" x1="60" y1="0" x2="60" y2="60" gradientUnits="userSpaceOnUse"><stop stop-color="#02ECFC" stop-opacity=".76"/><stop offset="1" stop-color="#FF01E6" stop-opacity=".85"/></linearGradient><linearGradient id="paint3_linear_219_19" x1="60" y1="0" x2="60" y2="60" gradientUnits="userSpaceOnUse"><stop stop-color="#02ECFC" stop-opacity=".76"/><stop offset="1" stop-color="#FF01E6" stop-opacity=".85"/></linearGradient><linearGradient id="paint4_linear_219_19" x1="60" y1="0" x2="60" y2="60" gradientUnits="userSpaceOnUse"><stop stop-color="#02ECFC" stop-opacity=".76"/><stop offset="1" stop-color="#FF01E6" stop-opacity=".85"/></linearGradient><linearGradient id="paint5_linear_219_19" x1="60" y1="0" x2="60" y2="60" gradientUnits="userSpaceOnUse"><stop stop-color="#02ECFC" stop-opacity=".76"/><stop offset="1" stop-color="#FF01E6" stop-opacity=".85"/></linearGradient><linearGradient id="paint6_linear_219_19" x1="60" y1="0" x2="60" y2="60" gradientUnits="userSpaceOnUse"><stop stop-color="#02ECFC" stop-opacity=".76"/><stop offset="1" stop-color="#FF01E6" stop-opacity=".85"/></linearGradient><linearGradient id="paint7_linear_219_19" x1="60" y1="0" x2="60" y2="60" gradientUnits="userSpaceOnUse"><stop stop-color="#02ECFC" stop-opacity=".76"/><stop offset="1" stop-color="#FF01E6" stop-opacity=".85"/></linearGradient><linearGradient id="paint8_linear_219_19" x1="60" y1="0" x2="60" y2="60" gradientUnits="userSpaceOnUse"><stop stop-color="#02ECFC" stop-opacity=".76"/><stop offset="1" stop-color="#FF01E6" stop-opacity=".85"/></linearGradient></defs></svg>