<svg viewBox="0 0 43 37" xmlns="http://www.w3.org/2000/svg" xmlns:xlink="http://www.w3.org/1999/xlink"><style>:root&gt;svg{display:none}:root&gt;svg:target{display:block}</style><svg fill="none" viewBox="0 0 43 16" id="arrow_next" xmlns="http://www.w3.org/2000/svg"><path d="M1 7a1 1 0 000 2V7zm41.707 1.707a1 1 0 000-1.414L36.343.929a1 1 0 10-1.414 1.414L40.586 8l-5.657 5.657a1 1 0 001.414 1.414l6.364-6.364zM1 9h41V7H1v2z" fill="#151516"/></svg><svg fill="none" viewBox="0 0 43 16" id="arrow_prev" xmlns="http://www.w3.org/2000/svg"><path d="M42 9a1 1 0 100-2v2zM.293 7.293a1 1 0 000 1.414l6.364 6.364a1 1 0 001.414-1.414L2.414 8l5.657-5.657A1 1 0 006.657.93L.293 7.293zM42 7H1v2h41V7z" fill="#151516"/></svg><svg viewBox="0 0 24 24" id="css--vk" xmlns="http://www.w3.org/2000/svg"><g clip-path="url(#ga)"><path d="M13.916 8.28c0 .84-.005 1.684.002 2.526.003.16.023.328.072.482.085.27.268.359.53.255.152-.06.3-.153.428-.255.483-.383.862-.862 1.22-1.358.954-1.317 1.715-2.744 2.363-4.232.161-.37.389-.662.802-.751.113-.025.23-.037.345-.037.825-.002 1.653-.005 2.478 0 .133 0 .271.016.402.048.32.083.471.324.419.65-.07.41-.226.79-.405 1.16-.444.916-.97 1.785-1.52 2.643-.459.719-.935 1.427-1.401 2.142a5.657 5.657 0 00-.242.411c-.112.205-.121.423.012.614.158.227.326.455.524.648.756.747 1.482 1.52 2.151 2.344.398.49.8.977 1.094 1.538.113.216.205.453.255.69.097.455-.149.779-.611.852a2.329 2.329 0 01-.358.026c-.796.002-1.589-.005-2.384.004-.393.005-.736-.115-1.011-.386a24.25 24.25 0 01-.947-.997c-.676-.747-1.361-1.483-2.16-2.101-.295-.228-.6-.435-.95-.575a1.34 1.34 0 00-.658-.083c-.245.028-.367.131-.411.377a2.853 2.853 0 00-.041.488c-.005.735-.003 1.468-.003 2.204 0 .096.003.193-.011.287-.05.37-.26.568-.699.662a5.23 5.23 0 01-1.441.085c-1.781-.108-3.33-.809-4.733-1.873-1.066-.81-1.935-1.802-2.691-2.9C3.207 12.23 2.2 10.527 1.416 8.7 1.047 7.838.719 6.963.535 6.04a2.485 2.485 0 01-.039-.64c.014-.245.177-.395.407-.461a1.32 1.32 0 01.354-.053c.887-.005 1.772-.003 2.66-.003.415 0 .726.182.891.566.133.31.244.632.363.95.602 1.606 1.333 3.148 2.28 4.582.313.474.646.934 1.071 1.315.13.115.276.22.43.297.294.142.536.018.6-.302.032-.158.048-.324.048-.487.005-1.273.01-2.546 0-3.82-.004-.685-.207-1.31-.65-1.848a3.964 3.964 0 01-.22-.296c-.134-.2-.169-.416-.051-.632.121-.226.324-.322.574-.325.559-.002 1.117 0 1.676 0h2.204c.08 0 .159.005.24.017a.545.545 0 01.491.455c.035.163.05.33.05.498.005.807.003 1.619.003 2.428z"/></g><defs><clipPath id="ga"><path fill="#fff" transform="translate(.488 .288)" d="M0 0h22.985v22.985H0z"/></clipPath></defs></svg><svg viewBox="0 0 32 32" id="download" xmlns="http://www.w3.org/2000/svg"><path d="M16 24.35L6.35 14.7l2.15-2.15 6 6V0h3v18.55l6-6 2.15 2.15L16 24.35zM3 32c-.8 0-1.5-.3-2.1-.9-.6-.6-.9-1.3-.9-2.1v-7.15h3V29h26v-7.15h3V29c0 .8-.3 1.5-.9 2.1-.6.6-1.3.9-2.1.9H3z"/></svg><svg fill="none" viewBox="0 0 36 37" id="search" xmlns="http://www.w3.org/2000/svg"><path d="M33.8 36.95L20.65 23.8c-1 .867-2.167 1.542-3.5 2.025a12.38 12.38 0 01-4.25.725c-3.6 0-6.65-1.25-9.15-3.75S0 17.283 0 13.75C0 10.217 1.25 7.2 3.75 4.7 6.25 2.2 9.283.95 12.85.95c3.533 0 6.542 1.25 9.025 3.75 2.483 2.5 3.725 5.517 3.725 9.05 0 1.433-.233 2.817-.7 4.15a12.694 12.694 0 01-2.1 3.75L36 34.75l-2.2 2.2zm-20.95-13.4c2.7 0 5-.958 6.9-2.875 1.9-1.917 2.85-4.225 2.85-6.925s-.95-5.008-2.85-6.925c-1.9-1.917-4.2-2.875-6.9-2.875-2.733 0-5.058.958-6.975 2.875C3.958 8.742 3 11.05 3 13.75s.958 5.008 2.875 6.925c1.917 1.917 4.242 2.875 6.975 2.875z" fill="#6B7073"/></svg><svg viewBox="0 0 24 24" id="telegram" xmlns="http://www.w3.org/2000/svg"><g clip-path="url(#ea)"><path d="M23.7 3.602c-.034.092-.032.191-.052.285l-.46 2.152-.765 3.592c-.304 1.425-.61 2.848-.913 4.273-.273 1.287-.55 2.572-.823 3.86-.177.829-.354 1.656-.533 2.486-.041.193-.11.382-.207.556-.255.467-.664.64-1.177.5-.287-.079-.535-.23-.774-.405-1.648-1.212-3.3-2.42-4.951-3.63-.05-.037-.078-.041-.127.007-.866.832-1.735 1.66-2.601 2.492-.191.181-.398.33-.662.377-.08.014-.161.023-.242.023-.034 0-.043-.01-.041-.046l.117-1.623.076-1.087.11-1.538c.021-.301.046-.6.06-.9a.297.297 0 01.108-.233c1.671-1.496 3.34-2.995 5.008-4.494 1.382-1.238 2.76-2.48 4.142-3.719l.518-.464a.569.569 0 00.151-.18c.053-.105.019-.19-.094-.227a.58.58 0 00-.331.007c-.12.03-.228.083-.333.147l-7.066 4.423c-1.669 1.043-3.337 2.089-5.006 3.132-.034.021-.062.035-.106.023-1.735-.54-3.473-1.08-5.208-1.622a1.55 1.55 0 01-.568-.3c-.26-.222-.285-.505-.066-.77.188-.229.439-.374.705-.489.51-.22 1.035-.404 1.554-.604 3.119-1.198 6.236-2.39 9.353-3.583l7.761-2.972c.651-.249 1.301-.5 1.954-.745.242-.092.492-.124.747-.06.393.099.605.368.699.747.018.078.03.159.046.237-.002.122-.002.248-.002.372z"/></g><defs><clipPath id="ea"><path fill="#fff" transform="translate(.727 .288)" d="M0 0h22.985v22.985H0z"/></clipPath></defs></svg><svg viewBox="0 0 24 24" id="vk" xmlns="http://www.w3.org/2000/svg"><g clip-path="url(#fa)"><path d="M13.916 8.28c0 .84-.005 1.684.002 2.526.003.16.023.328.072.482.085.27.268.359.53.255.152-.06.3-.153.428-.255.483-.383.862-.862 1.22-1.358.954-1.317 1.715-2.744 2.363-4.232.161-.37.389-.662.802-.751.113-.025.23-.037.345-.037.825-.002 1.653-.005 2.478 0 .133 0 .271.016.402.048.32.083.471.324.419.65-.07.41-.226.79-.405 1.16-.444.916-.97 1.785-1.52 2.643-.459.719-.935 1.427-1.401 2.142a5.657 5.657 0 00-.242.411c-.112.205-.121.423.012.614.158.227.326.455.524.648.756.747 1.482 1.52 2.151 2.344.398.49.8.977 1.094 1.538.113.216.205.453.255.69.097.455-.149.779-.611.852a2.329 2.329 0 01-.358.026c-.796.002-1.589-.005-2.384.004-.393.005-.736-.115-1.011-.386a24.25 24.25 0 01-.947-.997c-.676-.747-1.361-1.483-2.16-2.101-.295-.228-.6-.435-.95-.575a1.34 1.34 0 00-.658-.083c-.245.028-.367.131-.411.377a2.853 2.853 0 00-.041.488c-.005.735-.003 1.468-.003 2.204 0 .096.003.193-.011.287-.05.37-.26.568-.699.662a5.23 5.23 0 01-1.441.085c-1.781-.108-3.33-.809-4.733-1.873-1.066-.81-1.935-1.802-2.691-2.9C3.207 12.23 2.2 10.527 1.416 8.7 1.047 7.838.719 6.963.535 6.04a2.485 2.485 0 01-.039-.64c.014-.245.177-.395.407-.461a1.32 1.32 0 01.354-.053c.887-.005 1.772-.003 2.66-.003.415 0 .726.182.891.566.133.31.244.632.363.95.602 1.606 1.333 3.148 2.28 4.582.313.474.646.934 1.071 1.315.13.115.276.22.43.297.294.142.536.018.6-.302.032-.158.048-.324.048-.487.005-1.273.01-2.546 0-3.82-.004-.685-.207-1.31-.65-1.848a3.964 3.964 0 01-.22-.296c-.134-.2-.169-.416-.051-.632.121-.226.324-.322.574-.325.559-.002 1.117 0 1.676 0h2.204c.08 0 .159.005.24.017a.545.545 0 01.491.455c.035.163.05.33.05.498.005.807.003 1.619.003 2.428z"/></g><defs><clipPath id="fa"><path fill="#fff" transform="translate(.488 .288)" d="M0 0h22.985v22.985H0z"/></clipPath></defs></svg></svg>